<svg width="14" height="17" viewBox="0 0 14 17" fill="none" xmlns="http://www.w3.org/2000/svg">
<path d="M13.5 6.75C13.5 12 6.75 16.5 6.75 16.5C6.75 16.5 0 12 0 6.75C2.66762e-08 4.95979 0.711159 3.2429 1.97703 1.97703C3.2429 0.711159 4.95979 0 6.75 0C8.54021 0 10.2571 0.711159 11.523 1.97703C12.7888 3.2429 13.5 4.95979 13.5 6.75Z" fill="#009652"/>
<path d="M6.75 9C7.99264 9 9 7.99264 9 6.75C9 5.50736 7.99264 4.5 6.75 4.5C5.50736 4.5 4.5 5.50736 4.5 6.75C4.5 7.99264 5.50736 9 6.75 9Z" fill="white"/>
</svg>
