<svg width="14" height="27" viewBox="0 0 14 27" fill="none" xmlns="http://www.w3.org/2000/svg">
<path fill-rule="evenodd" clip-rule="evenodd" d="M4.15296 10.3016L0.001792 10.3025L0 15.1896H4.14221L4.15386 26.9972L9.26554 27L9.27091 15.1914L13.078 15.1905L13.8145 10.3081L9.27181 10.3034C9.26106 9.41605 9.27091 8.52313 9.27091 7.63668C9.27091 6.73821 9.29958 6.08469 9.73862 5.45243C10.442 4.44027 11.6202 4.4985 12.6856 4.4985C13.1237 4.4985 13.5619 4.4985 14 4.4985V0.336145C11.9204 -0.00956234 9.32557 -0.307204 7.37766 0.614375C6.82214 0.877815 6.28275 1.24848 5.86611 1.67276C4.95757 2.59803 4.44416 3.85977 4.24794 5.18899C4.08218 6.31023 4.17178 8.98808 4.15206 10.3016H4.15296Z" fill="white"/>
</svg>
