<svg width="24" height="24" viewBox="0 0 24 24" fill="none" xmlns="http://www.w3.org/2000/svg">
<path fill-rule="evenodd" clip-rule="evenodd" d="M10.0644 8.58054C10.4631 8.05984 12.0891 7.82193 12.8288 8.10958C17.0594 8.90659 16.999 15.2113 12.7041 15.9337C9.55406 16.4636 7.10154 13.3361 8.35585 10.3925C8.65796 9.68305 9.39814 8.77304 10.0644 8.58054ZM2.217 7.71595C2.44305 6.42743 2.24506 5.68233 2.8741 4.51223L3.08612 4.2554C3.30245 3.62601 3.85327 3.26049 4.4165 2.91065C6.00907 2.0812 8.17135 2.16987 10.1227 2.17961L11.6575 2.16447C13.2053 2.16825 18.5004 2.00442 19.3841 2.83549C22.2078 3.96503 21.7816 8.06362 21.8193 11.4993C21.8388 13.2712 21.8269 15.1334 21.7427 16.8853C21.541 21.0661 19.116 21.7528 15.6524 21.8101C13.5209 21.8458 6.81291 22.0356 5.12647 21.4122C3.3181 20.7438 3.12065 19.8846 2.50563 18.6167C2.16737 16.8318 2.22887 15.1123 2.19974 13.2334C2.18355 12.186 2.36752 8.3767 2.217 7.71703V7.71595ZM7.21753 24H16.8053C17.5099 23.6875 19.5875 23.9897 21.4768 22.4471C24.4316 20.0339 23.9708 16.13 23.9778 12.3196C23.9822 10.1973 23.9816 8.12581 23.8365 6.02352L23.6995 4.99293C23.3461 4.59172 22.9922 1.31014 18.8036 0.308205C18.0742 0.134096 16.3031 0.12166 15.9529 0H7.99008C7.27741 0.248727 5.93085 -0.136259 3.91208 0.736449C-0.441601 2.61812 0.0455576 7.51751 0.0385442 11.5891C0.0309914 16.0521 -0.574855 20.6471 3.30515 22.958C5.08924 24.0205 6.40722 23.6366 7.21807 23.9995L7.21753 24ZM17.0584 4.98536C16.8641 5.91051 17.0837 6.57018 17.7802 6.89893C18.133 7.06547 18.5808 7.07088 18.9352 6.94111C19.3868 6.77565 19.4197 6.52422 19.6576 6.38796C19.9166 5.5066 19.7979 4.71338 19.082 4.32028C18.714 4.11805 18.2301 4.10346 17.8217 4.27757C17.2596 4.5171 17.2995 4.73879 17.0578 4.98536H17.0584ZM9.18289 6.44798C8.94767 6.70914 8.60671 6.85892 8.31647 7.06817C7.96688 7.32069 7.90592 7.47587 7.61243 7.73109C7.15495 8.12959 6.72012 8.71897 6.47465 9.39918C6.06788 9.74578 5.84183 11.5258 5.86233 12.2293C5.87798 12.7759 5.96915 13.2696 6.11373 13.7589C6.25184 14.2266 6.47897 14.5743 6.58633 14.9918C6.59873 15.0031 6.61546 15.022 6.62085 15.0285L6.72659 15.1545C6.73469 15.1653 6.82154 15.2951 6.83341 15.3124C7.67124 16.5993 8.49828 16.9578 8.70328 17.2941C9.1079 17.3292 9.66681 17.7364 10.1869 17.8624C12.3017 18.8741 16.1067 17.6012 17.4225 14.9161L17.9523 13.8525L17.9949 13.414L18.1487 12.1368L18.1422 10.9321C17.9771 10.7299 18.071 10.8569 17.9771 10.5325C17.935 10.3871 17.9037 10.2497 17.8573 10.1043C17.7505 9.76795 17.655 9.54734 17.5401 9.21696C17.3254 9.12017 16.6964 7.23525 14.3016 6.28036C11.568 5.19029 9.74881 6.39391 9.18235 6.4469L9.18289 6.44798Z" fill="white"/>
</svg>
