<svg width="185" height="48" viewBox="0 0 185 48" fill="none" xmlns="http://www.w3.org/2000/svg">
<g clip-path="url(#clip0_4303_474)">
<path d="M19.9025 5.23155H24.7696L25.2678 12.6763L29.7563 5.23155H34.5636L26.9272 16.9505L28.3801 29.424H23.4132L22.7316 21.6527L17.7881 29.424H12.8612L21.2259 16.8153L19.9025 5.23155H19.9025ZM0.000976562 32.6513H60.8141L55.712 48.0001H54.6226L59.3792 33.691H0.00103391V32.6514L0.000976562 32.6513ZM74.05 5.74422e-05L69.3696 14.3091H185V15.3487H67.9392L72.9598 0H74.05V5.74422e-05ZM70.5533 40.7215H65.5532L64.3163 44.7086H59.8115L68.3355 20.5161H73.166L75.3701 44.7086H70.749L70.5532 40.7215H70.5533ZM70.3006 35.4843L69.8729 26.7894L67.1755 35.4843H70.3006ZM89.813 26.4629H82.9112L80.5369 44.7086H76.1286L79.2769 20.5161H90.5869L89.813 26.4629H89.813ZM91.927 20.5161H99.2675C100.867 20.5161 101.98 21.1581 102.61 22.4477C103.237 23.7373 103.397 25.5732 103.087 27.9553C102.769 30.3992 102.084 32.3139 101.037 33.688C99.9902 35.0677 98.5743 35.7547 96.7924 35.7547H94.3722L93.2069 44.7086H88.7787L91.927 20.5162V20.5161ZM95.0097 30.8554H96.0968C96.9545 30.8554 97.5893 30.6019 98.0003 30.1008C98.4112 29.5995 98.6676 28.9576 98.7695 28.1748C98.8684 27.4146 98.8023 26.7726 98.5687 26.2432C98.3383 25.7139 97.8077 25.4492 96.9765 25.4492H95.7131L95.0097 30.8554H95.0097ZM105.717 20.5161H117.526L116.853 25.6858H109.473L108.972 29.5376H115.814L115.172 34.4707H108.33L107.71 39.2348H115.31L114.597 44.7086H102.569L105.717 20.5161H105.717ZM130.024 26.4629H123.122L120.748 44.7086H116.34L119.488 20.5161H130.798L130.024 26.4629ZM138.315 40.7215H133.315L132.078 44.7085H127.573L136.098 20.5161H140.928L143.132 44.7085H138.511L138.315 40.7215H138.315ZM138.063 35.4843L137.635 26.7894L134.938 35.4843H138.063ZM146.042 20.5161H159.466L158.688 26.4967H154.18L151.81 44.7085H147.401L149.771 26.4967H145.263L146.042 20.5161H146.042ZM164.024 29.8417H166.381C168.542 29.8417 170.064 30.4893 170.94 31.7789C171.818 33.0741 172.079 35.0846 171.724 37.8101C171.433 40.0457 170.732 41.7521 169.621 42.9347C168.506 44.1173 167.056 44.7086 165.261 44.7086H157.681L160.829 20.5161H165.238L164.024 29.8418L164.024 29.8417ZM162.767 39.5051H165.024C166.404 39.5051 167.205 38.6605 167.426 36.9654C167.618 35.4843 167.023 34.741 165.644 34.741H163.386L162.766 39.5051H162.767ZM175.052 20.5161H179.48L176.332 44.7085H171.903L175.052 20.5161H175.052ZM50.0591 5.23149L43.4568 29.4239H39.3078L42.9333 16.1395L33.9985 29.4239H29.813L36.4154 5.23149H40.5843L36.9312 18.6173L45.9336 5.23149H50.0592H50.0591ZM52.9715 5.23149H58.7928L56.9928 19.9519L63.2343 5.23149H69.029L62.4265 29.4239H58.8162L63.8493 10.9812L56.0302 29.4239H52.7589L55.0128 10.9812L49.9795 29.4239H46.3691L52.9716 5.23149H52.9715Z" fill="white"/>
</g>
<defs>
<clipPath id="clip0_4303_474">
<rect width="185" height="48" fill="white"/>
</clipPath>
</defs>
</svg>
