<svg width="208" height="50" viewBox="0 0 208 50" fill="none" xmlns="http://www.w3.org/2000/svg">
<path d="M0 33.5824H61.143L55.7685 49.3497H54.6209L59.6314 34.6504H6.0413e-05L0 33.5824ZM75.0854 0.0405864L70.1551 14.7399H207.867V15.8079H68.6484L73.937 0.0405273L75.0854 0.0405864Z" fill="#FF6701"/>
<path d="M72.3682 44.4997H66.1423L64.6021 49.35H58.993L69.6067 19.9195H75.6215L78.366 49.35H72.612L72.3682 44.4997ZM72.0536 38.1285L71.5211 27.5511L68.1624 38.1285H72.0536ZM96.3498 27.1538H87.7559L84.7995 49.35H79.3105L83.2306 19.9195H97.3134L96.3498 27.1538ZM98.9821 19.9195H108.122C110.113 19.9195 111.5 20.7005 112.284 22.2693C113.064 23.8381 113.264 26.0715 112.878 28.9694C112.482 31.9425 111.629 34.2717 110.326 35.9433C109.022 37.6217 107.259 38.4574 105.04 38.4574H102.027L100.576 49.35H95.0619L98.9821 19.9195ZM102.821 32.4974H104.174C105.242 32.4974 106.033 32.189 106.544 31.5794C107.056 30.9696 107.375 30.1886 107.502 29.2364C107.625 28.3116 107.543 27.5306 107.252 26.8865C106.965 26.2427 106.304 25.9207 105.27 25.9207H103.696L102.821 32.4974ZM116.153 19.9195H130.857L130.019 26.2084H120.83L120.206 30.8943H128.725L127.925 36.8955H119.406L118.634 42.6911H128.097L127.21 49.35H112.233L116.153 19.9195ZM146.419 27.1538H137.825L134.869 49.35H129.38L133.3 19.9195H147.383L146.419 27.1538ZM156.743 44.4996H150.517L148.977 49.3499H143.368L153.982 19.9194H159.997L162.741 49.3499H156.987L156.743 44.4996ZM156.429 38.1285L155.896 27.551L152.537 38.1285H156.429ZM166.364 19.9194H183.079L182.11 27.1949H176.497L173.546 49.3499H168.057L171.008 27.1949H165.395L166.364 19.9194ZM188.755 31.2642H191.69C194.381 31.2642 196.275 32.052 197.366 33.6209C198.46 35.1965 198.784 37.6422 198.342 40.9579C197.98 43.6776 197.108 45.7533 195.724 47.192C194.336 48.6307 192.53 49.35 190.295 49.35H180.857L184.777 19.9195H190.266L188.755 31.2642ZM187.189 43.0199H190C191.718 43.0199 192.716 41.9924 192.99 39.9303C193.23 38.1285 192.49 37.2243 190.772 37.2243H187.961L187.189 43.0199ZM202.486 19.9194H208L204.08 49.3499H198.566L202.486 19.9194Z" fill="#009652"/>
<path d="M10.8104 6.81327e-05H16.7149L17.2339 9.4638L22.7645 6.81327e-05H28.5966L18.8247 13.922L19.4896 28.697H13.4641L14.0523 19.0158L6.63994 28.697H0.662842L11.7986 13.922L10.8104 6.81327e-05ZM47.3951 0L37.78 28.6969H32.7467L38.3123 12.5618L26.3057 28.6969H21.228L30.8431 0H35.9007L30.3582 16.5633L42.3901 0H47.3951ZM50.9283 0H57.9903L54.2013 17.4773L63.3786 0H70.4085L60.7932 28.6969H56.4133L64.1247 6.81052L53.0335 28.6969H49.0649L52.4971 6.81052L45.6931 28.6969H41.3131L50.9283 0Z" fill="#009652"/>
</svg>
