<svg width="29" height="17" viewBox="0 0 29 17" fill="none" xmlns="http://www.w3.org/2000/svg">
<path fill-rule="evenodd" clip-rule="evenodd" d="M14.1456 16.9388H15.8713C15.8713 16.9388 16.3924 16.8813 16.6589 16.5947C16.9038 16.3311 16.896 15.8366 16.896 15.8366C16.896 15.8366 16.8622 13.5211 17.9368 13.1801C18.9964 12.844 20.3568 15.418 21.7987 16.4078C22.889 17.1566 23.7176 16.9927 23.7176 16.9927L27.5733 16.9388C27.5733 16.9388 29.5902 16.8144 28.6338 15.2286C28.5555 15.099 28.0767 14.0555 25.7669 11.9116C23.3491 9.66759 23.6732 10.0306 26.5854 6.14911C28.359 3.78526 29.0679 2.3422 28.8464 1.72417C28.6354 1.13532 27.3308 1.29087 27.3308 1.29087L22.9896 1.31771C22.9896 1.31771 22.6675 1.27389 22.429 1.41663C22.1957 1.55622 22.0459 1.88236 22.0459 1.88236C22.0459 1.88236 21.3586 3.71145 20.4425 5.26725C18.5095 8.54966 17.7364 8.72341 17.4204 8.51927C16.6852 8.04418 16.869 6.61108 16.869 5.59269C16.869 2.41154 17.3515 1.0852 15.9294 0.741868C15.4575 0.628001 15.1099 0.552666 13.903 0.540364C12.3539 0.524606 11.0432 0.545143 10.3008 0.908805C9.80689 1.15067 9.42584 1.6895 9.65805 1.72051C9.94505 1.75874 10.5947 1.89589 10.9391 2.36457C11.3841 2.96999 11.3686 4.32907 11.3686 4.32907C11.3686 4.32907 11.6243 8.07376 10.7716 8.53878C10.1865 8.85781 9.38375 8.20654 7.6603 5.22852C6.77742 3.70311 6.11059 2.01677 6.11059 2.01677C6.11059 2.01677 5.98219 1.7017 5.75283 1.53304C5.47467 1.32869 5.086 1.26393 5.086 1.26393L0.960567 1.29087C0.960567 1.29087 0.341415 1.30815 0.113886 1.57747C-0.0885327 1.8172 0.0977219 2.31241 0.0977219 2.31241C0.0977219 2.31241 3.32727 9.86848 6.98442 13.6763C10.3381 17.1679 14.1456 16.9388 14.1456 16.9388Z" fill="white"/>
</svg>
