<svg width="28" height="20" viewBox="0 0 28 20" fill="none" xmlns="http://www.w3.org/2000/svg">
<path fill-rule="evenodd" clip-rule="evenodd" d="M11.2139 5.75352L18.413 9.99928C18.2924 10.1265 17.6833 10.4633 17.5101 10.5674L14.8142 12.1503C14.2009 12.5175 13.5961 12.8558 12.9885 13.2244C12.4277 13.5656 11.796 13.9501 11.204 14.2537L11.2125 5.75497L11.2139 5.75352ZM0.0014595 9.71015L0.0483083 12.3556C0.0440493 13.1579 0.266936 15.0835 0.366312 15.7832C0.592038 17.3733 1.10028 18.6484 2.72579 19.2945C3.05231 19.4246 3.49808 19.5128 3.87571 19.5663C5.14773 19.7456 6.03076 19.7542 7.22895 19.854C7.64633 19.8887 8.93964 19.88 9.36412 19.9393C9.73181 19.9899 14.7957 20 15.7256 20C16.2481 20 16.6015 19.9508 17.0942 19.9523C17.5456 19.9537 18.0681 19.9769 18.511 19.9523C18.7452 19.9393 18.8716 19.9017 19.1711 19.9031L22.5371 19.7239C23.3137 19.6184 24.1811 19.6516 25.0329 19.3813C26.0565 19.056 26.87 18.3159 27.2731 17.3357C27.6508 16.4163 27.7061 15.2223 27.8254 14.2927C27.9106 13.6379 28 11.6415 28 10.8652C28 9.09143 27.9986 8.13733 27.8609 6.34333C27.78 5.2996 27.6607 3.49982 27.2305 2.56306C26.7649 1.55114 25.8975 0.850018 24.7901 0.576798C23.9923 0.380195 23.0795 0.371521 22.2262 0.254427C21.7918 0.193712 21.2722 0.218287 20.8222 0.193712C20.588 0.180701 20.4616 0.143115 20.1621 0.144561C19.9179 0.146006 19.6595 0.164799 19.4196 0.13155L13.7409 0C12.777 0 11.9082 0.0477051 10.9073 0.0477051C9.52454 0.0477051 5.11082 0.247199 4.02052 0.439465C3.60172 0.513191 3.18576 0.54644 2.80529 0.692447C2.07132 0.975786 1.58864 1.35598 1.15422 1.9429C0.442974 2.90278 0.354955 4.20817 0.203051 5.44561L0.0468886 7.49837C0.0397903 7.74991 0.0625049 8.02024 0.0483083 8.26888C0.0355313 8.50741 -0.00137982 8.63607 3.9841e-05 8.94109C0.0014595 9.19696 3.9841e-05 9.45428 3.9841e-05 9.71015H0.0014595Z" fill="white"/>
</svg>
