<svg xmlns="http://www.w3.org/2000/svg" fill="none" viewBox="0 0 24 24"><path fill="#fff" fill-rule="evenodd" d="M10.064 8.58c.4-.52 2.025-.758 2.765-.47 4.23.797 4.17 7.101-.125 7.824-3.15.53-5.602-2.598-4.348-5.541.302-.71 1.042-1.62 1.708-1.812m-7.847-.864c.226-1.289.028-2.034.657-3.204l.212-.257c.216-.629.767-.995 1.33-1.344 1.593-.83 3.755-.741 5.707-.731l1.535-.016c1.547.004 6.842-.16 7.726.671 2.824 1.13 2.398 5.229 2.435 8.664.02 1.772.008 3.634-.076 5.386-.202 4.181-2.627 4.868-6.09 4.925-2.132.036-8.84.226-10.527-.398-1.808-.668-2.005-1.527-2.62-2.795-.339-1.785-.277-3.505-.306-5.384-.016-1.047.168-4.856.017-5.516zm5 16.284h9.588c.705-.312 2.782-.01 4.672-1.553 2.955-2.413 2.494-6.317 2.5-10.127.005-2.123.005-4.194-.14-6.296L23.7 4.993c-.354-.401-.708-3.683-4.896-4.685-.73-.174-2.5-.186-2.851-.308H7.99c-.713.249-2.06-.136-4.078.736C-.442 2.618.046 7.518.04 11.59c-.008 4.463-.614 9.058 3.266 11.369 1.784 1.063 3.102.679 3.913 1.042M17.06 4.986c-.194.926.026 1.585.722 1.914.353.166.8.172 1.155.042.452-.165.485-.417.723-.553.259-.881.14-1.675-.576-2.068-.368-.202-.852-.217-1.26-.042-.562.24-.523.46-.764.707M9.183 6.448c-.235.261-.576.41-.867.62-.35.253-.41.408-.704.663A4.1 4.1 0 0 0 6.475 9.4c-.407.347-.633 2.127-.613 2.83.016.547.107 1.04.252 1.53.138.468.365.815.472 1.233.013.011.03.03.035.036l.106.127c.008.01.095.14.106.157.838 1.287 1.665 1.646 1.87 1.982.405.035.964.442 1.484.568 2.115 1.012 5.92-.26 7.236-2.946l.53-1.064.042-.438.154-1.277-.007-1.205c-.165-.202-.071-.075-.165-.4-.042-.145-.073-.282-.12-.428-.107-.336-.202-.557-.317-.887-.215-.097-.844-1.982-3.238-2.937-2.734-1.09-4.553.114-5.12.167z" clip-rule="evenodd"/></svg>