<svg xmlns="http://www.w3.org/2000/svg" fill="none" viewBox="0 0 185 48"><g clip-path="url(#a)"><path fill="#fff" d="M19.903 5.232h4.867l.498 7.444 4.488-7.444h4.808L26.927 16.95l1.453 12.473h-4.967l-.681-7.771-4.944 7.771h-4.927l8.365-12.609zM0 32.652h60.813L55.712 48h-1.09l4.757-14.309H.001zM74.05 0l-4.68 14.31H185v1.039H67.94L72.96 0zm-3.497 40.722h-5l-1.237 3.987h-4.504l8.523-24.193h4.831L75.37 44.71h-4.62zm-.252-5.238-.428-8.695-2.698 8.695zm19.512-9.021h-6.902l-2.374 18.246h-4.408l3.148-24.193h11.31zm2.114-5.947h7.34q2.399-.002 3.343 1.932.941 1.935.477 5.507c-.318 2.444-1.003 4.359-2.05 5.733q-1.571 2.069-4.245 2.067h-2.42l-1.165 8.954h-4.428zm3.083 10.34h1.087q1.287-.002 1.903-.755.617-.752.77-1.926.148-1.139-.201-1.932-.345-.795-1.593-.794h-1.263zm10.707-10.34h11.809l-.673 5.17h-7.38l-.501 3.852h6.842l-.642 4.933h-6.842l-.62 4.764h7.6l-.713 5.474h-12.028zm24.307 5.947h-6.902l-2.374 18.246h-4.408l3.148-24.193h11.31zm8.291 14.258h-5l-1.237 3.988h-4.505l8.525-24.193h4.83l2.204 24.193h-4.621zm-.252-5.237-.428-8.695-2.697 8.695zm7.979-14.968h13.424l-.778 5.98h-4.508l-2.37 18.213h-4.409l2.37-18.212h-4.508zm17.982 9.326h2.357q3.243.001 4.559 1.937 1.317 1.943.784 6.031-.436 3.352-2.103 5.125c-1.115 1.182-2.565 1.774-4.36 1.774h-7.58l3.148-24.193h4.409zm-1.257 9.663h2.257q2.07.001 2.402-2.54c.192-1.48-.403-2.224-1.782-2.224h-2.258l-.62 4.764zm12.285-18.989h4.428l-3.148 24.193h-4.429zM50.059 5.231l-6.602 24.193h-4.15l3.626-13.284L34 29.424h-4.186L36.415 5.23h4.17L36.93 18.617l9.003-13.386zm2.913 0h5.82l-1.8 14.72 6.242-14.72h5.795l-6.602 24.193h-3.61l5.032-18.443-7.819 18.443h-3.27l2.254-18.443-5.033 18.443h-3.61z"/></g><defs><clipPath id="a"><path fill="#fff" d="M0 0h185v48H0z"/></clipPath></defs></svg>