<svg xmlns="http://www.w3.org/2000/svg" fill="none" viewBox="0 0 208 50"><path fill="#FF6701" d="M0 33.582h61.143L55.769 49.35H54.62l5.01-14.7H.001zM75.085.041l-4.93 14.699h137.712v1.068H68.648L73.937.04z"/><path fill="#009652" d="M72.368 44.5h-6.226l-1.54 4.85h-5.609l10.614-29.43h6.014l2.745 29.43h-5.754zm-.314-6.371L71.52 27.55l-3.358 10.58zM96.35 27.154h-8.594L84.799 49.35H79.31l3.92-29.43h14.083zm2.632-7.235h9.14q2.986-.001 4.162 2.35 1.172 2.355.594 6.7c-.396 2.973-1.249 5.303-2.552 6.974-1.304 1.679-3.067 2.514-5.286 2.514h-3.013l-1.451 10.893h-5.514zm3.839 12.578h1.353q1.603-.002 2.37-.918.768-.914.958-2.343.185-1.384-.25-2.35-.43-.965-1.982-.965h-1.574zm13.332-12.577h14.704l-.838 6.288h-9.189l-.624 4.686h8.519l-.8 6.002h-8.519l-.772 5.795h9.463l-.887 6.659h-14.977zm30.266 7.234h-8.594l-2.956 22.196h-5.489l3.92-29.43h14.083zM156.743 44.5h-6.226l-1.54 4.85h-5.609l10.614-29.43h6.015l2.744 29.43h-5.754zm-.314-6.371-.533-10.578-3.359 10.578zm9.935-18.21h16.715l-.969 7.276h-5.613l-2.951 22.155h-5.489l2.951-22.155h-5.613zm22.391 11.345h2.935q4.038.002 5.676 2.357 1.64 2.363.976 7.337c-.362 2.72-1.234 4.795-2.618 6.234-1.388 1.439-3.194 2.158-5.429 2.158h-9.438l3.92-29.43h5.489zm-1.566 11.756H190q2.578.002 2.99-3.09c.24-1.801-.5-2.706-2.218-2.706h-2.811zm15.297-23.1H208l-3.92 29.43h-5.514zM10.81 0h5.905l.519 9.464L22.764 0h5.833l-9.772 13.922.665 14.775h-6.026l.588-9.681-7.412 9.681H.663l11.136-14.775zm36.585 0L37.78 28.697h-5.033l5.565-16.135-12.006 16.135h-5.078L30.843 0h5.058l-5.543 16.563L42.39 0zm3.533 0h7.062l-3.789 17.477L63.38 0h7.03l-9.616 28.697h-4.38L64.125 6.81 53.033 28.697h-3.968L52.497 6.81l-6.804 21.886h-4.38z"/></svg>