<svg xmlns="http://www.w3.org/2000/svg" fill="none" viewBox="0 0 29 17"><path fill="#fff" fill-rule="evenodd" d="M14.146 16.939h1.725s.521-.058.788-.344c.245-.264.237-.758.237-.758s-.034-2.316 1.04-2.657c1.06-.336 2.42 2.238 3.863 3.228 1.09.749 1.919.585 1.919.585l3.855-.054s2.017-.125 1.06-1.71c-.078-.13-.556-1.173-2.866-3.317-2.418-2.244-2.094-1.881.818-5.763 1.774-2.364 2.483-3.807 2.261-4.425-.21-.589-1.515-.433-1.515-.433l-4.341.027s-.322-.044-.561.099c-.233.14-.383.465-.383.465s-.687 1.83-1.604 3.385C18.51 8.55 17.737 8.723 17.42 8.52c-.735-.475-.551-1.908-.551-2.926 0-3.181.483-4.508-.94-4.851-.472-.114-.82-.19-2.026-.202-1.55-.015-2.86.005-3.602.369-.494.242-.875.78-.643.812.287.038.937.175 1.281.644.445.605.43 1.964.43 1.964s.255 3.745-.597 4.21c-.585.319-1.388-.332-3.112-3.31-.883-1.526-1.55-3.212-1.55-3.212s-.128-.315-.357-.484c-.278-.204-.667-.27-.667-.27l-4.125.028s-.62.017-.847.286c-.203.24-.016.735-.016.735s3.23 7.556 6.886 11.364c3.354 3.492 7.162 3.263 7.162 3.263" clip-rule="evenodd"/></svg>