<svg xmlns="http://www.w3.org/2000/svg" fill="none" viewBox="0 0 28 20"><path fill="#fff" fill-rule="evenodd" d="m11.214 5.754 7.199 4.245c-.12.127-.73.464-.903.568l-2.696 1.583c-.613.367-1.218.706-1.825 1.074-.561.342-1.193.726-1.785 1.03l.008-8.499zM0 9.71l.047 2.646c-.004.802.219 2.728.318 3.427.226 1.59.734 2.865 2.36 3.512.326.13.772.218 1.15.271 1.272.18 2.155.188 3.353.288.417.035 1.71.026 2.135.085.368.05 5.432.061 6.362.061.522 0 .876-.05 1.368-.048.452.002.974.025 1.417 0 .234-.013.36-.05.66-.049l3.366-.18c.777-.105 1.644-.071 2.496-.342a3.57 3.57 0 0 0 2.24-2.045c.378-.92.433-2.114.552-3.043.086-.655.175-2.651.175-3.428 0-1.774-.001-2.728-.14-4.522-.08-1.043-.2-2.843-.63-3.78C26.766 1.551 25.899.85 24.79.577 23.992.38 23.08.372 22.226.254c-.434-.06-.954-.036-1.404-.06-.234-.013-.36-.05-.66-.05-.244.002-.502.02-.742-.012L13.74 0c-.963 0-1.832.048-2.833.048-1.382 0-5.796.2-6.886.391-.42.074-.835.107-1.216.253-.734.284-1.216.664-1.65 1.25-.712.96-.8 2.266-.952 3.504L.047 7.498c-.007.252.016.522.001.77-.012.24-.05.368-.048.673z" clip-rule="evenodd"/></svg>